<svg width="50" height="61" viewBox="0 0 50 61" fill="none" xmlns="http://www.w3.org/2000/svg">
<path fill-rule="evenodd" clip-rule="evenodd" d="M42.3037 23.6942V7.90384C43.7392 6.57212 45.1747 5.30958 46.6102 4.13352V4.44483V23.7115C46.6102 29.3324 44.3099 34.4517 40.6088 38.1529C36.9076 41.854 31.7883 44.1543 26.1501 44.1543H11.0861C11.899 42.7188 12.7292 41.2833 13.6112 39.8478H26.1501C30.5949 39.8478 34.6247 38.0318 37.5649 35.0917C40.4877 32.1688 42.3037 28.1391 42.3037 23.6942ZM0 60.083C7.55794 36.1813 33.6735 8.0422 50 0C47.8035 0.553442 45.5379 1.33172 43.2549 2.26565H20.46C14.8392 2.26565 9.71982 4.56589 6.00138 8.26704C2.30024 11.9682 0 17.0875 0 22.7257V42.9263V44.137V60.083ZM34.5209 6.57212H20.46C16.0152 6.57212 11.9855 8.3881 9.04531 11.3283C6.12245 14.2511 4.30647 18.2982 4.30647 22.743V34.4345C11.0342 23.9191 22.6219 13.4037 34.5209 6.57212Z" fill="#DFDFDF"/>
</svg>
